<?xml version="1.0" encoding="utf-8" standalone="no"?>
<!DOCTYPE svg PUBLIC "-//W3C//DTD SVG 1.1//EN"
  "http://www.w3.org/Graphics/SVG/1.1/DTD/svg11.dtd">
<svg height="288pt" version="1.1" viewBox="0 0 432 288" width="432pt" xmlns="http://www.w3.org/2000/svg" xmlns:xlink="http://www.w3.org/1999/xlink">
 <metadata>
  <rdf:RDF xmlns:cc="http://creativecommons.org/ns#" xmlns:dc="http://purl.org/dc/elements/1.1/" xmlns:rdf="http://www.w3.org/1999/02/22-rdf-syntax-ns#">
   <cc:Work>
    <dc:type rdf:resource="http://purl.org/dc/dcmitype/StillImage"/>
    <dc:date>2021-07-26T14:42:54.664002</dc:date>
    <dc:format>image/svg+xml</dc:format>
    <dc:creator>
     <cc:Agent>
      <dc:title>Matplotlib v3.4.2, https://matplotlib.org/</dc:title>
     </cc:Agent>
    </dc:creator>
   </cc:Work>
  </rdf:RDF>
 </metadata>
 <defs>
  <style type="text/css">*{stroke-linecap:butt;stroke-linejoin:round;}</style>
 </defs>
 <g id="figure_1">
  <g id="patch_1">
   <path d="M 0 288 
L 432 288 
L 432 0 
L 0 0 
z
" style="fill:none;"/>
  </g>
  <g id="axes_1">
   <g id="patch_2">
    <path d="M 54 252 
L 388.8 252 
L 388.8 34.56 
L 54 34.56 
z
" style="fill:#ffffff;"/>
   </g>
   <g id="patch_3">
    <path clip-path="url(#p899fd92f9b)" d="M 52.326 252 
L 55.674 252 
L 55.674 251.654377 
L 52.326 251.654377 
z
" style="fill:#1f77b4;"/>
   </g>
   <g id="patch_4">
    <path clip-path="url(#p899fd92f9b)" d="M 56.511 252 
L 59.859 252 
L 59.859 251.800543 
L 56.511 251.800543 
z
" style="fill:#1f77b4;"/>
   </g>
   <g id="patch_5">
    <path clip-path="url(#p899fd92f9b)" d="M 60.696 252 
L 64.044 252 
L 64.044 251.628546 
L 60.696 251.628546 
z
" style="fill:#1f77b4;"/>
   </g>
   <g id="patch_6">
    <path clip-path="url(#p899fd92f9b)" d="M 64.881 252 
L 68.229 252 
L 68.229 251.663275 
L 64.881 251.663275 
z
" style="fill:#1f77b4;"/>
   </g>
   <g id="patch_7">
    <path clip-path="url(#p899fd92f9b)" d="M 69.066 252 
L 72.414 252 
L 72.414 251.851312 
L 69.066 251.851312 
z
" style="fill:#1f77b4;"/>
   </g>
   <g id="patch_8">
    <path clip-path="url(#p899fd92f9b)" d="M 73.251 252 
L 76.599 252 
L 76.599 251.45396 
L 73.251 251.45396 
z
" style="fill:#1f77b4;"/>
   </g>
   <g id="patch_9">
    <path clip-path="url(#p899fd92f9b)" d="M 77.436 252 
L 80.784 252 
L 80.784 251.686756 
L 77.436 251.686756 
z
" style="fill:#1f77b4;"/>
   </g>
   <g id="patch_10">
    <path clip-path="url(#p899fd92f9b)" d="M 81.621 252 
L 84.969 252 
L 84.969 251.509421 
L 81.621 251.509421 
z
" style="fill:#1f77b4;"/>
   </g>
   <g id="patch_11">
    <path clip-path="url(#p899fd92f9b)" d="M 85.806 252 
L 89.154 252 
L 89.154 251.05696 
L 85.806 251.05696 
z
" style="fill:#1f77b4;"/>
   </g>
   <g id="patch_12">
    <path clip-path="url(#p899fd92f9b)" d="M 89.991 252 
L 93.339 252 
L 93.339 251.558276 
L 89.991 251.558276 
z
" style="fill:#1f77b4;"/>
   </g>
   <g id="patch_13">
    <path clip-path="url(#p899fd92f9b)" d="M 94.176 252 
L 97.524 252 
L 97.524 251.569244 
L 94.176 251.569244 
z
" style="fill:#1f77b4;"/>
   </g>
   <g id="patch_14">
    <path clip-path="url(#p899fd92f9b)" d="M 98.361 252 
L 101.709 252 
L 101.709 251.442043 
L 98.361 251.442043 
z
" style="fill:#1f77b4;"/>
   </g>
   <g id="patch_15">
    <path clip-path="url(#p899fd92f9b)" d="M 102.546 252 
L 105.894 252 
L 105.894 250.926878 
L 102.546 250.926878 
z
" style="fill:#1f77b4;"/>
   </g>
   <g id="patch_16">
    <path clip-path="url(#p899fd92f9b)" d="M 106.731 252 
L 110.079 252 
L 110.079 251.556799 
L 106.731 251.556799 
z
" style="fill:#1f77b4;"/>
   </g>
   <g id="patch_17">
    <path clip-path="url(#p899fd92f9b)" d="M 110.916 252 
L 114.264 252 
L 114.264 251.219176 
L 110.916 251.219176 
z
" style="fill:#1f77b4;"/>
   </g>
   <g id="patch_18">
    <path clip-path="url(#p899fd92f9b)" d="M 115.101 252 
L 118.449 252 
L 118.449 251.474772 
L 115.101 251.474772 
z
" style="fill:#1f77b4;"/>
   </g>
   <g id="patch_19">
    <path clip-path="url(#p899fd92f9b)" d="M 119.286 252 
L 122.634 252 
L 122.634 251.086789 
L 119.286 251.086789 
z
" style="fill:#1f77b4;"/>
   </g>
   <g id="patch_20">
    <path clip-path="url(#p899fd92f9b)" d="M 123.471 252 
L 126.819 252 
L 126.819 251.432383 
L 123.471 251.432383 
z
" style="fill:#1f77b4;"/>
   </g>
   <g id="patch_21">
    <path clip-path="url(#p899fd92f9b)" d="M 127.656 252 
L 131.004 252 
L 131.004 250.629004 
L 127.656 250.629004 
z
" style="fill:#1f77b4;"/>
   </g>
   <g id="patch_22">
    <path clip-path="url(#p899fd92f9b)" d="M 131.841 252 
L 135.189 252 
L 135.189 250.621517 
L 131.841 250.621517 
z
" style="fill:#1f77b4;"/>
   </g>
   <g id="patch_23">
    <path clip-path="url(#p899fd92f9b)" d="M 136.026 252 
L 139.374 252 
L 139.374 250.587322 
L 136.026 250.587322 
z
" style="fill:#1f77b4;"/>
   </g>
   <g id="patch_24">
    <path clip-path="url(#p899fd92f9b)" d="M 140.211 252 
L 143.559 252 
L 143.559 250.605697 
L 140.211 250.605697 
z
" style="fill:#1f77b4;"/>
   </g>
   <g id="patch_25">
    <path clip-path="url(#p899fd92f9b)" d="M 144.396 252 
L 147.744 252 
L 147.744 250.718153 
L 144.396 250.718153 
z
" style="fill:#1f77b4;"/>
   </g>
   <g id="patch_26">
    <path clip-path="url(#p899fd92f9b)" d="M 148.581 252 
L 151.929 252 
L 151.929 250.427284 
L 148.581 250.427284 
z
" style="fill:#1f77b4;"/>
   </g>
   <g id="patch_27">
    <path clip-path="url(#p899fd92f9b)" d="M 152.766 252 
L 156.114 252 
L 156.114 249.667237 
L 152.766 249.667237 
z
" style="fill:#1f77b4;"/>
   </g>
   <g id="patch_28">
    <path clip-path="url(#p899fd92f9b)" d="M 156.951 252 
L 160.299 252 
L 160.299 249.572783 
L 156.951 249.572783 
z
" style="fill:#1f77b4;"/>
   </g>
   <g id="patch_29">
    <path clip-path="url(#p899fd92f9b)" d="M 161.136 252 
L 164.484 252 
L 164.484 249.41523 
L 161.136 249.41523 
z
" style="fill:#1f77b4;"/>
   </g>
   <g id="patch_30">
    <path clip-path="url(#p899fd92f9b)" d="M 165.321 252 
L 168.669 252 
L 168.669 248.949446 
L 165.321 248.949446 
z
" style="fill:#1f77b4;"/>
   </g>
   <g id="patch_31">
    <path clip-path="url(#p899fd92f9b)" d="M 169.506 252 
L 172.854 252 
L 172.854 248.742561 
L 169.506 248.742561 
z
" style="fill:#1f77b4;"/>
   </g>
   <g id="patch_32">
    <path clip-path="url(#p899fd92f9b)" d="M 173.691 252 
L 177.039 252 
L 177.039 247.21236 
L 173.691 247.21236 
z
" style="fill:#1f77b4;"/>
   </g>
   <g id="patch_33">
    <path clip-path="url(#p899fd92f9b)" d="M 177.876 252 
L 181.224 252 
L 181.224 246.904023 
L 177.876 246.904023 
z
" style="fill:#1f77b4;"/>
   </g>
   <g id="patch_34">
    <path clip-path="url(#p899fd92f9b)" d="M 182.061 252 
L 185.409 252 
L 185.409 246.858317 
L 182.061 246.858317 
z
" style="fill:#1f77b4;"/>
   </g>
   <g id="patch_35">
    <path clip-path="url(#p899fd92f9b)" d="M 186.246 252 
L 189.594 252 
L 189.594 246.148284 
L 186.246 246.148284 
z
" style="fill:#1f77b4;"/>
   </g>
   <g id="patch_36">
    <path clip-path="url(#p899fd92f9b)" d="M 190.431 252 
L 193.779 252 
L 193.779 244.711671 
L 190.431 244.711671 
z
" style="fill:#1f77b4;"/>
   </g>
   <g id="patch_37">
    <path clip-path="url(#p899fd92f9b)" d="M 194.616 252 
L 197.964 252 
L 197.964 245.176407 
L 194.616 245.176407 
z
" style="fill:#1f77b4;"/>
   </g>
   <g id="patch_38">
    <path clip-path="url(#p899fd92f9b)" d="M 198.801 252 
L 202.149 252 
L 202.149 243.4961 
L 198.801 243.4961 
z
" style="fill:#1f77b4;"/>
   </g>
   <g id="patch_39">
    <path clip-path="url(#p899fd92f9b)" d="M 202.986 252 
L 206.334 252 
L 206.334 243.269394 
L 202.986 243.269394 
z
" style="fill:#1f77b4;"/>
   </g>
   <g id="patch_40">
    <path clip-path="url(#p899fd92f9b)" d="M 207.171 252 
L 210.519 252 
L 210.519 242.723124 
L 207.171 242.723124 
z
" style="fill:#1f77b4;"/>
   </g>
   <g id="patch_41">
    <path clip-path="url(#p899fd92f9b)" d="M 211.356 252 
L 214.704 252 
L 214.704 241.67834 
L 211.356 241.67834 
z
" style="fill:#1f77b4;"/>
   </g>
   <g id="patch_42">
    <path clip-path="url(#p899fd92f9b)" d="M 215.541 252 
L 218.889 252 
L 218.889 241.717815 
L 215.541 241.717815 
z
" style="fill:#1f77b4;"/>
   </g>
   <g id="patch_43">
    <path clip-path="url(#p899fd92f9b)" d="M 219.726 252 
L 223.074 252 
L 223.074 239.50457 
L 219.726 239.50457 
z
" style="fill:#1f77b4;"/>
   </g>
   <g id="patch_44">
    <path clip-path="url(#p899fd92f9b)" d="M 223.911 252 
L 227.259 252 
L 227.259 235.813307 
L 223.911 235.813307 
z
" style="fill:#1f77b4;"/>
   </g>
   <g id="patch_45">
    <path clip-path="url(#p899fd92f9b)" d="M 228.096 252 
L 231.444 252 
L 231.444 230.804722 
L 228.096 230.804722 
z
" style="fill:#1f77b4;"/>
   </g>
   <g id="patch_46">
    <path clip-path="url(#p899fd92f9b)" d="M 232.281 252 
L 235.629 252 
L 235.629 224.249821 
L 232.281 224.249821 
z
" style="fill:#1f77b4;"/>
   </g>
   <g id="patch_47">
    <path clip-path="url(#p899fd92f9b)" d="M 236.466 252 
L 239.814 252 
L 239.814 226.316342 
L 236.466 226.316342 
z
" style="fill:#1f77b4;"/>
   </g>
   <g id="patch_48">
    <path clip-path="url(#p899fd92f9b)" d="M 240.651 252 
L 243.999 252 
L 243.999 223.251864 
L 240.651 223.251864 
z
" style="fill:#1f77b4;"/>
   </g>
   <g id="patch_49">
    <path clip-path="url(#p899fd92f9b)" d="M 244.836 252 
L 248.184 252 
L 248.184 219.233273 
L 244.836 219.233273 
z
" style="fill:#1f77b4;"/>
   </g>
   <g id="patch_50">
    <path clip-path="url(#p899fd92f9b)" d="M 249.021 252 
L 252.369 252 
L 252.369 211.500255 
L 249.021 211.500255 
z
" style="fill:#1f77b4;"/>
   </g>
   <g id="patch_51">
    <path clip-path="url(#p899fd92f9b)" d="M 253.206 252 
L 256.554 252 
L 256.554 207.677255 
L 253.206 207.677255 
z
" style="fill:#1f77b4;"/>
   </g>
   <g id="patch_52">
    <path clip-path="url(#p899fd92f9b)" d="M 257.391 252 
L 260.739 252 
L 260.739 206.037383 
L 257.391 206.037383 
z
" style="fill:#1f77b4;"/>
   </g>
   <g id="patch_53">
    <path clip-path="url(#p899fd92f9b)" d="M 261.576 252 
L 264.924 252 
L 264.924 199.253021 
L 261.576 199.253021 
z
" style="fill:#1f77b4;"/>
   </g>
   <g id="patch_54">
    <path clip-path="url(#p899fd92f9b)" d="M 265.761 252 
L 269.109 252 
L 269.109 190.64127 
L 265.761 190.64127 
z
" style="fill:#1f77b4;"/>
   </g>
   <g id="patch_55">
    <path clip-path="url(#p899fd92f9b)" d="M 269.946 252 
L 273.294 252 
L 273.294 179.891149 
L 269.946 179.891149 
z
" style="fill:#1f77b4;"/>
   </g>
   <g id="patch_56">
    <path clip-path="url(#p899fd92f9b)" d="M 274.131 252 
L 277.479 252 
L 277.479 181.142511 
L 274.131 181.142511 
z
" style="fill:#1f77b4;"/>
   </g>
   <g id="patch_57">
    <path clip-path="url(#p899fd92f9b)" d="M 278.316 252 
L 281.664 252 
L 281.664 176.88405 
L 278.316 176.88405 
z
" style="fill:#1f77b4;"/>
   </g>
   <g id="patch_58">
    <path clip-path="url(#p899fd92f9b)" d="M 282.501 252 
L 285.849 252 
L 285.849 180.371037 
L 282.501 180.371037 
z
" style="fill:#1f77b4;"/>
   </g>
   <g id="patch_59">
    <path clip-path="url(#p899fd92f9b)" d="M 286.686 252 
L 290.034 252 
L 290.034 174.692664 
L 286.686 174.692664 
z
" style="fill:#1f77b4;"/>
   </g>
   <g id="patch_60">
    <path clip-path="url(#p899fd92f9b)" d="M 290.871 252 
L 294.219 252 
L 294.219 152.62991 
L 290.871 152.62991 
z
" style="fill:#1f77b4;"/>
   </g>
   <g id="patch_61">
    <path clip-path="url(#p899fd92f9b)" d="M 295.056 252 
L 298.404 252 
L 298.404 155.34629 
L 295.056 155.34629 
z
" style="fill:#1f77b4;"/>
   </g>
   <g id="patch_62">
    <path clip-path="url(#p899fd92f9b)" d="M 299.241 252 
L 302.589 252 
L 302.589 148.677917 
L 299.241 148.677917 
z
" style="fill:#1f77b4;"/>
   </g>
   <g id="patch_63">
    <path clip-path="url(#p899fd92f9b)" d="M 303.426 252 
L 306.774 252 
L 306.774 138.050297 
L 303.426 138.050297 
z
" style="fill:#1f77b4;"/>
   </g>
   <g id="patch_64">
    <path clip-path="url(#p899fd92f9b)" d="M 307.611 252 
L 310.959 252 
L 310.959 132.36881 
L 307.611 132.36881 
z
" style="fill:#1f77b4;"/>
   </g>
   <g id="patch_65">
    <path clip-path="url(#p899fd92f9b)" d="M 311.796 252 
L 315.144 252 
L 315.144 126.677037 
L 311.796 126.677037 
z
" style="fill:#1f77b4;"/>
   </g>
   <g id="patch_66">
    <path clip-path="url(#p899fd92f9b)" d="M 315.981 252 
L 319.329 252 
L 319.329 125.264557 
L 315.981 125.264557 
z
" style="fill:#1f77b4;"/>
   </g>
   <g id="patch_67">
    <path clip-path="url(#p899fd92f9b)" d="M 320.166 252 
L 323.514 252 
L 323.514 124.993654 
L 320.166 124.993654 
z
" style="fill:#1f77b4;"/>
   </g>
   <g id="patch_68">
    <path clip-path="url(#p899fd92f9b)" d="M 324.351 252 
L 327.699 252 
L 327.699 108.129925 
L 324.351 108.129925 
z
" style="fill:#1f77b4;"/>
   </g>
   <g id="patch_69">
    <path clip-path="url(#p899fd92f9b)" d="M 328.536 252 
L 331.884 252 
L 331.884 105.068974 
L 328.536 105.068974 
z
" style="fill:#1f77b4;"/>
   </g>
   <g id="patch_70">
    <path clip-path="url(#p899fd92f9b)" d="M 332.721 252 
L 336.069 252 
L 336.069 97.660082 
L 332.721 97.660082 
z
" style="fill:#1f77b4;"/>
   </g>
   <g id="patch_71">
    <path clip-path="url(#p899fd92f9b)" d="M 336.906 252 
L 340.254 252 
L 340.254 109.562872 
L 336.906 109.562872 
z
" style="fill:#1f77b4;"/>
   </g>
   <g id="patch_72">
    <path clip-path="url(#p899fd92f9b)" d="M 341.091 252 
L 344.439 252 
L 344.439 97.271806 
L 341.091 97.271806 
z
" style="fill:#1f77b4;"/>
   </g>
   <g id="patch_73">
    <path clip-path="url(#p899fd92f9b)" d="M 345.276 252 
L 348.624 252 
L 348.624 101.068817 
L 345.276 101.068817 
z
" style="fill:#1f77b4;"/>
   </g>
   <g id="patch_74">
    <path clip-path="url(#p899fd92f9b)" d="M 349.461 252 
L 352.809 252 
L 352.809 79.642946 
L 349.461 79.642946 
z
" style="fill:#1f77b4;"/>
   </g>
   <g id="patch_75">
    <path clip-path="url(#p899fd92f9b)" d="M 353.646 252 
L 356.994 252 
L 356.994 76.594065 
L 353.646 76.594065 
z
" style="fill:#1f77b4;"/>
   </g>
   <g id="patch_76">
    <path clip-path="url(#p899fd92f9b)" d="M 357.831 252 
L 361.179 252 
L 361.179 84.342269 
L 357.831 84.342269 
z
" style="fill:#1f77b4;"/>
   </g>
   <g id="patch_77">
    <path clip-path="url(#p899fd92f9b)" d="M 362.016 252 
L 365.364 252 
L 365.364 84.40505 
L 362.016 84.40505 
z
" style="fill:#1f77b4;"/>
   </g>
   <g id="patch_78">
    <path clip-path="url(#p899fd92f9b)" d="M 366.201 252 
L 369.549 252 
L 369.549 98.320602 
L 366.201 98.320602 
z
" style="fill:#1f77b4;"/>
   </g>
   <g id="patch_79">
    <path clip-path="url(#p899fd92f9b)" d="M 370.386 252 
L 373.734 252 
L 373.734 100.407843 
L 370.386 100.407843 
z
" style="fill:#1f77b4;"/>
   </g>
   <g id="patch_80">
    <path clip-path="url(#p899fd92f9b)" d="M 374.571 252 
L 377.919 252 
L 377.919 71.413406 
L 374.571 71.413406 
z
" style="fill:#1f77b4;"/>
   </g>
   <g id="patch_81">
    <path clip-path="url(#p899fd92f9b)" d="M 378.756 252 
L 382.104 252 
L 382.104 60.501382 
L 378.756 60.501382 
z
" style="fill:#1f77b4;"/>
   </g>
   <g id="patch_82">
    <path clip-path="url(#p899fd92f9b)" d="M 382.941 252 
L 386.289 252 
L 386.289 61.34966 
L 382.941 61.34966 
z
" style="fill:#1f77b4;"/>
   </g>
   <g id="patch_83">
    <path clip-path="url(#p899fd92f9b)" d="M 387.126 252 
L 390.474 252 
L 390.474 118.703448 
L 387.126 118.703448 
z
" style="fill:#1f77b4;"/>
   </g>
   <g id="patch_84">
    <path clip-path="url(#p899fd92f9b)" d="M 52.326 252 
L 55.674 252 
L 55.674 251.752586 
L 52.326 251.752586 
z
" style="fill:#ff7f0e;"/>
   </g>
   <g id="patch_85">
    <path clip-path="url(#p899fd92f9b)" d="M 56.511 252 
L 59.859 252 
L 59.859 251.860642 
L 56.511 251.860642 
z
" style="fill:#ff7f0e;"/>
   </g>
   <g id="patch_86">
    <path clip-path="url(#p899fd92f9b)" d="M 60.696 252 
L 64.044 252 
L 64.044 251.733509 
L 60.696 251.733509 
z
" style="fill:#ff7f0e;"/>
   </g>
   <g id="patch_87">
    <path clip-path="url(#p899fd92f9b)" d="M 64.881 252 
L 68.229 252 
L 68.229 251.91695 
L 64.881 251.91695 
z
" style="fill:#ff7f0e;"/>
   </g>
   <g id="patch_88">
    <path clip-path="url(#p899fd92f9b)" d="M 69.066 252 
L 72.414 252 
L 72.414 251.844516 
L 69.066 251.844516 
z
" style="fill:#ff7f0e;"/>
   </g>
   <g id="patch_89">
    <path clip-path="url(#p899fd92f9b)" d="M 73.251 252 
L 76.599 252 
L 76.599 251.85224 
L 73.251 251.85224 
z
" style="fill:#ff7f0e;"/>
   </g>
   <g id="patch_90">
    <path clip-path="url(#p899fd92f9b)" d="M 77.436 252 
L 80.784 252 
L 80.784 251.854753 
L 77.436 251.854753 
z
" style="fill:#ff7f0e;"/>
   </g>
   <g id="patch_91">
    <path clip-path="url(#p899fd92f9b)" d="M 81.621 252 
L 84.969 252 
L 84.969 251.670857 
L 81.621 251.670857 
z
" style="fill:#ff7f0e;"/>
   </g>
   <g id="patch_92">
    <path clip-path="url(#p899fd92f9b)" d="M 85.806 252 
L 89.154 252 
L 89.154 251.789351 
L 85.806 251.789351 
z
" style="fill:#ff7f0e;"/>
   </g>
   <g id="patch_93">
    <path clip-path="url(#p899fd92f9b)" d="M 89.991 252 
L 93.339 252 
L 93.339 251.796526 
L 89.991 251.796526 
z
" style="fill:#ff7f0e;"/>
   </g>
   <g id="patch_94">
    <path clip-path="url(#p899fd92f9b)" d="M 94.176 252 
L 97.524 252 
L 97.524 251.529274 
L 94.176 251.529274 
z
" style="fill:#ff7f0e;"/>
   </g>
   <g id="patch_95">
    <path clip-path="url(#p899fd92f9b)" d="M 98.361 252 
L 101.709 252 
L 101.709 251.590605 
L 98.361 251.590605 
z
" style="fill:#ff7f0e;"/>
   </g>
   <g id="patch_96">
    <path clip-path="url(#p899fd92f9b)" d="M 102.546 252 
L 105.894 252 
L 105.894 251.655889 
L 102.546 251.655889 
z
" style="fill:#ff7f0e;"/>
   </g>
   <g id="patch_97">
    <path clip-path="url(#p899fd92f9b)" d="M 106.731 252 
L 110.079 252 
L 110.079 251.685678 
L 106.731 251.685678 
z
" style="fill:#ff7f0e;"/>
   </g>
   <g id="patch_98">
    <path clip-path="url(#p899fd92f9b)" d="M 110.916 252 
L 114.264 252 
L 114.264 251.474668 
L 110.916 251.474668 
z
" style="fill:#ff7f0e;"/>
   </g>
   <g id="patch_99">
    <path clip-path="url(#p899fd92f9b)" d="M 115.101 252 
L 118.449 252 
L 118.449 251.563494 
L 115.101 251.563494 
z
" style="fill:#ff7f0e;"/>
   </g>
   <g id="patch_100">
    <path clip-path="url(#p899fd92f9b)" d="M 119.286 252 
L 122.634 252 
L 122.634 251.431448 
L 119.286 251.431448 
z
" style="fill:#ff7f0e;"/>
   </g>
   <g id="patch_101">
    <path clip-path="url(#p899fd92f9b)" d="M 123.471 252 
L 126.819 252 
L 126.819 251.300583 
L 123.471 251.300583 
z
" style="fill:#ff7f0e;"/>
   </g>
   <g id="patch_102">
    <path clip-path="url(#p899fd92f9b)" d="M 127.656 252 
L 131.004 252 
L 131.004 251.189941 
L 127.656 251.189941 
z
" style="fill:#ff7f0e;"/>
   </g>
   <g id="patch_103">
    <path clip-path="url(#p899fd92f9b)" d="M 131.841 252 
L 135.189 252 
L 135.189 251.007515 
L 131.841 251.007515 
z
" style="fill:#ff7f0e;"/>
   </g>
   <g id="patch_104">
    <path clip-path="url(#p899fd92f9b)" d="M 136.026 252 
L 139.374 252 
L 139.374 250.955285 
L 136.026 250.955285 
z
" style="fill:#ff7f0e;"/>
   </g>
   <g id="patch_105">
    <path clip-path="url(#p899fd92f9b)" d="M 140.211 252 
L 143.559 252 
L 143.559 250.811175 
L 140.211 250.811175 
z
" style="fill:#ff7f0e;"/>
   </g>
   <g id="patch_106">
    <path clip-path="url(#p899fd92f9b)" d="M 144.396 252 
L 147.744 252 
L 147.744 250.676147 
L 144.396 250.676147 
z
" style="fill:#ff7f0e;"/>
   </g>
   <g id="patch_107">
    <path clip-path="url(#p899fd92f9b)" d="M 148.581 252 
L 151.929 252 
L 151.929 250.994925 
L 148.581 250.994925 
z
" style="fill:#ff7f0e;"/>
   </g>
   <g id="patch_108">
    <path clip-path="url(#p899fd92f9b)" d="M 152.766 252 
L 156.114 252 
L 156.114 250.256621 
L 152.766 250.256621 
z
" style="fill:#ff7f0e;"/>
   </g>
   <g id="patch_109">
    <path clip-path="url(#p899fd92f9b)" d="M 156.951 252 
L 160.299 252 
L 160.299 250.006395 
L 156.951 250.006395 
z
" style="fill:#ff7f0e;"/>
   </g>
   <g id="patch_110">
    <path clip-path="url(#p899fd92f9b)" d="M 161.136 252 
L 164.484 252 
L 164.484 249.529276 
L 161.136 249.529276 
z
" style="fill:#ff7f0e;"/>
   </g>
   <g id="patch_111">
    <path clip-path="url(#p899fd92f9b)" d="M 165.321 252 
L 168.669 252 
L 168.669 249.809824 
L 165.321 249.809824 
z
" style="fill:#ff7f0e;"/>
   </g>
   <g id="patch_112">
    <path clip-path="url(#p899fd92f9b)" d="M 169.506 252 
L 172.854 252 
L 172.854 249.873911 
L 169.506 249.873911 
z
" style="fill:#ff7f0e;"/>
   </g>
   <g id="patch_113">
    <path clip-path="url(#p899fd92f9b)" d="M 173.691 252 
L 177.039 252 
L 177.039 249.035678 
L 173.691 249.035678 
z
" style="fill:#ff7f0e;"/>
   </g>
   <g id="patch_114">
    <path clip-path="url(#p899fd92f9b)" d="M 177.876 252 
L 181.224 252 
L 181.224 248.908447 
L 177.876 248.908447 
z
" style="fill:#ff7f0e;"/>
   </g>
   <g id="patch_115">
    <path clip-path="url(#p899fd92f9b)" d="M 182.061 252 
L 185.409 252 
L 185.409 247.665529 
L 182.061 247.665529 
z
" style="fill:#ff7f0e;"/>
   </g>
   <g id="patch_116">
    <path clip-path="url(#p899fd92f9b)" d="M 186.246 252 
L 189.594 252 
L 189.594 247.983661 
L 186.246 247.983661 
z
" style="fill:#ff7f0e;"/>
   </g>
   <g id="patch_117">
    <path clip-path="url(#p899fd92f9b)" d="M 190.431 252 
L 193.779 252 
L 193.779 246.656215 
L 190.431 246.656215 
z
" style="fill:#ff7f0e;"/>
   </g>
   <g id="patch_118">
    <path clip-path="url(#p899fd92f9b)" d="M 194.616 252 
L 197.964 252 
L 197.964 245.507908 
L 194.616 245.507908 
z
" style="fill:#ff7f0e;"/>
   </g>
   <g id="patch_119">
    <path clip-path="url(#p899fd92f9b)" d="M 198.801 252 
L 202.149 252 
L 202.149 244.974923 
L 198.801 244.974923 
z
" style="fill:#ff7f0e;"/>
   </g>
   <g id="patch_120">
    <path clip-path="url(#p899fd92f9b)" d="M 202.986 252 
L 206.334 252 
L 206.334 245.740004 
L 202.986 245.740004 
z
" style="fill:#ff7f0e;"/>
   </g>
   <g id="patch_121">
    <path clip-path="url(#p899fd92f9b)" d="M 207.171 252 
L 210.519 252 
L 210.519 245.09493 
L 207.171 245.09493 
z
" style="fill:#ff7f0e;"/>
   </g>
   <g id="patch_122">
    <path clip-path="url(#p899fd92f9b)" d="M 211.356 252 
L 214.704 252 
L 214.704 243.576635 
L 211.356 243.576635 
z
" style="fill:#ff7f0e;"/>
   </g>
   <g id="patch_123">
    <path clip-path="url(#p899fd92f9b)" d="M 215.541 252 
L 218.889 252 
L 218.889 241.360477 
L 215.541 241.360477 
z
" style="fill:#ff7f0e;"/>
   </g>
   <g id="patch_124">
    <path clip-path="url(#p899fd92f9b)" d="M 219.726 252 
L 223.074 252 
L 223.074 240.839446 
L 219.726 240.839446 
z
" style="fill:#ff7f0e;"/>
   </g>
   <g id="patch_125">
    <path clip-path="url(#p899fd92f9b)" d="M 223.911 252 
L 227.259 252 
L 227.259 238.943214 
L 223.911 238.943214 
z
" style="fill:#ff7f0e;"/>
   </g>
   <g id="patch_126">
    <path clip-path="url(#p899fd92f9b)" d="M 228.096 252 
L 231.444 252 
L 231.444 239.09662 
L 228.096 239.09662 
z
" style="fill:#ff7f0e;"/>
   </g>
   <g id="patch_127">
    <path clip-path="url(#p899fd92f9b)" d="M 232.281 252 
L 235.629 252 
L 235.629 235.5488 
L 232.281 235.5488 
z
" style="fill:#ff7f0e;"/>
   </g>
   <g id="patch_128">
    <path clip-path="url(#p899fd92f9b)" d="M 236.466 252 
L 239.814 252 
L 239.814 232.148646 
L 236.466 232.148646 
z
" style="fill:#ff7f0e;"/>
   </g>
   <g id="patch_129">
    <path clip-path="url(#p899fd92f9b)" d="M 240.651 252 
L 243.999 252 
L 243.999 230.24347 
L 240.651 230.24347 
z
" style="fill:#ff7f0e;"/>
   </g>
   <g id="patch_130">
    <path clip-path="url(#p899fd92f9b)" d="M 244.836 252 
L 248.184 252 
L 248.184 231.238345 
L 244.836 231.238345 
z
" style="fill:#ff7f0e;"/>
   </g>
   <g id="patch_131">
    <path clip-path="url(#p899fd92f9b)" d="M 249.021 252 
L 252.369 252 
L 252.369 228.680678 
L 249.021 228.680678 
z
" style="fill:#ff7f0e;"/>
   </g>
   <g id="patch_132">
    <path clip-path="url(#p899fd92f9b)" d="M 253.206 252 
L 256.554 252 
L 256.554 223.652148 
L 253.206 223.652148 
z
" style="fill:#ff7f0e;"/>
   </g>
   <g id="patch_133">
    <path clip-path="url(#p899fd92f9b)" d="M 257.391 252 
L 260.739 252 
L 260.739 225.461127 
L 257.391 225.461127 
z
" style="fill:#ff7f0e;"/>
   </g>
   <g id="patch_134">
    <path clip-path="url(#p899fd92f9b)" d="M 261.576 252 
L 264.924 252 
L 264.924 221.721149 
L 261.576 221.721149 
z
" style="fill:#ff7f0e;"/>
   </g>
   <g id="patch_135">
    <path clip-path="url(#p899fd92f9b)" d="M 265.761 252 
L 269.109 252 
L 269.109 218.583148 
L 265.761 218.583148 
z
" style="fill:#ff7f0e;"/>
   </g>
   <g id="patch_136">
    <path clip-path="url(#p899fd92f9b)" d="M 269.946 252 
L 273.294 252 
L 273.294 217.384244 
L 269.946 217.384244 
z
" style="fill:#ff7f0e;"/>
   </g>
   <g id="patch_137">
    <path clip-path="url(#p899fd92f9b)" d="M 274.131 252 
L 277.479 252 
L 277.479 218.503562 
L 274.131 218.503562 
z
" style="fill:#ff7f0e;"/>
   </g>
   <g id="patch_138">
    <path clip-path="url(#p899fd92f9b)" d="M 278.316 252 
L 281.664 252 
L 281.664 208.804207 
L 278.316 208.804207 
z
" style="fill:#ff7f0e;"/>
   </g>
   <g id="patch_139">
    <path clip-path="url(#p899fd92f9b)" d="M 282.501 252 
L 285.849 252 
L 285.849 205.810692 
L 282.501 205.810692 
z
" style="fill:#ff7f0e;"/>
   </g>
   <g id="patch_140">
    <path clip-path="url(#p899fd92f9b)" d="M 286.686 252 
L 290.034 252 
L 290.034 201.177187 
L 286.686 201.177187 
z
" style="fill:#ff7f0e;"/>
   </g>
   <g id="patch_141">
    <path clip-path="url(#p899fd92f9b)" d="M 290.871 252 
L 294.219 252 
L 294.219 196.97543 
L 290.871 196.97543 
z
" style="fill:#ff7f0e;"/>
   </g>
   <g id="patch_142">
    <path clip-path="url(#p899fd92f9b)" d="M 295.056 252 
L 298.404 252 
L 298.404 188.371957 
L 295.056 188.371957 
z
" style="fill:#ff7f0e;"/>
   </g>
   <g id="patch_143">
    <path clip-path="url(#p899fd92f9b)" d="M 299.241 252 
L 302.589 252 
L 302.589 187.070512 
L 299.241 187.070512 
z
" style="fill:#ff7f0e;"/>
   </g>
   <g id="patch_144">
    <path clip-path="url(#p899fd92f9b)" d="M 303.426 252 
L 306.774 252 
L 306.774 180.808806 
L 303.426 180.808806 
z
" style="fill:#ff7f0e;"/>
   </g>
   <g id="patch_145">
    <path clip-path="url(#p899fd92f9b)" d="M 307.611 252 
L 310.959 252 
L 310.959 177.930016 
L 307.611 177.930016 
z
" style="fill:#ff7f0e;"/>
   </g>
   <g id="patch_146">
    <path clip-path="url(#p899fd92f9b)" d="M 311.796 252 
L 315.144 252 
L 315.144 178.936815 
L 311.796 178.936815 
z
" style="fill:#ff7f0e;"/>
   </g>
   <g id="patch_147">
    <path clip-path="url(#p899fd92f9b)" d="M 315.981 252 
L 319.329 252 
L 319.329 176.561633 
L 315.981 176.561633 
z
" style="fill:#ff7f0e;"/>
   </g>
   <g id="patch_148">
    <path clip-path="url(#p899fd92f9b)" d="M 320.166 252 
L 323.514 252 
L 323.514 162.204002 
L 320.166 162.204002 
z
" style="fill:#ff7f0e;"/>
   </g>
   <g id="patch_149">
    <path clip-path="url(#p899fd92f9b)" d="M 324.351 252 
L 327.699 252 
L 327.699 165.068296 
L 324.351 165.068296 
z
" style="fill:#ff7f0e;"/>
   </g>
   <g id="patch_150">
    <path clip-path="url(#p899fd92f9b)" d="M 328.536 252 
L 331.884 252 
L 331.884 152.404525 
L 328.536 152.404525 
z
" style="fill:#ff7f0e;"/>
   </g>
   <g id="patch_151">
    <path clip-path="url(#p899fd92f9b)" d="M 332.721 252 
L 336.069 252 
L 336.069 146.669119 
L 332.721 146.669119 
z
" style="fill:#ff7f0e;"/>
   </g>
   <g id="patch_152">
    <path clip-path="url(#p899fd92f9b)" d="M 336.906 252 
L 340.254 252 
L 340.254 161.050193 
L 336.906 161.050193 
z
" style="fill:#ff7f0e;"/>
   </g>
   <g id="patch_153">
    <path clip-path="url(#p899fd92f9b)" d="M 341.091 252 
L 344.439 252 
L 344.439 142.77603 
L 341.091 142.77603 
z
" style="fill:#ff7f0e;"/>
   </g>
   <g id="patch_154">
    <path clip-path="url(#p899fd92f9b)" d="M 345.276 252 
L 348.624 252 
L 348.624 138.756187 
L 345.276 138.756187 
z
" style="fill:#ff7f0e;"/>
   </g>
   <g id="patch_155">
    <path clip-path="url(#p899fd92f9b)" d="M 349.461 252 
L 352.809 252 
L 352.809 130.779094 
L 349.461 130.779094 
z
" style="fill:#ff7f0e;"/>
   </g>
   <g id="patch_156">
    <path clip-path="url(#p899fd92f9b)" d="M 353.646 252 
L 356.994 252 
L 356.994 114.965503 
L 353.646 114.965503 
z
" style="fill:#ff7f0e;"/>
   </g>
   <g id="patch_157">
    <path clip-path="url(#p899fd92f9b)" d="M 357.831 252 
L 361.179 252 
L 361.179 116.789396 
L 357.831 116.789396 
z
" style="fill:#ff7f0e;"/>
   </g>
   <g id="patch_158">
    <path clip-path="url(#p899fd92f9b)" d="M 362.016 252 
L 365.364 252 
L 365.364 122.778514 
L 362.016 122.778514 
z
" style="fill:#ff7f0e;"/>
   </g>
   <g id="patch_159">
    <path clip-path="url(#p899fd92f9b)" d="M 366.201 252 
L 369.549 252 
L 369.549 108.036669 
L 366.201 108.036669 
z
" style="fill:#ff7f0e;"/>
   </g>
   <g id="patch_160">
    <path clip-path="url(#p899fd92f9b)" d="M 370.386 252 
L 373.734 252 
L 373.734 120.342857 
L 370.386 120.342857 
z
" style="fill:#ff7f0e;"/>
   </g>
   <g id="patch_161">
    <path clip-path="url(#p899fd92f9b)" d="M 374.571 252 
L 377.919 252 
L 377.919 100.24253 
L 374.571 100.24253 
z
" style="fill:#ff7f0e;"/>
   </g>
   <g id="patch_162">
    <path clip-path="url(#p899fd92f9b)" d="M 378.756 252 
L 382.104 252 
L 382.104 165.075132 
L 378.756 165.075132 
z
" style="fill:#ff7f0e;"/>
   </g>
   <g id="patch_163">
    <path clip-path="url(#p899fd92f9b)" d="M 382.941 252 
L 386.289 252 
L 386.289 57.095798 
L 382.941 57.095798 
z
" style="fill:#ff7f0e;"/>
   </g>
   <g id="patch_164">
    <path clip-path="url(#p899fd92f9b)" d="M 387.126 252 
L 390.474 252 
L 390.474 44.914286 
L 387.126 44.914286 
z
" style="fill:#ff7f0e;"/>
   </g>
   <g id="matplotlib.axis_1">
    <g id="xtick_1">
     <g id="line2d_1">
      <path clip-path="url(#p899fd92f9b)" d="M 54 252 
L 54 34.56 
" style="fill:none;stroke:#b0b0b0;stroke-linecap:square;stroke-width:0.8;"/>
     </g>
     <g id="line2d_2">
      <defs>
       <path d="M 0 0 
L 0 3.5 
" id="m6405cefd59" style="stroke:#000000;stroke-width:0.8;"/>
      </defs>
      <g>
       <use style="stroke:#000000;stroke-width:0.8;" x="54" xlink:href="#m6405cefd59" y="252"/>
      </g>
     </g>
     <g id="text_1">
      <!-- 20 -->
      <g transform="translate(47.6375 266.598437)scale(0.1 -0.1)">
       <defs>
        <path d="M 1228 531 
L 3431 531 
L 3431 0 
L 469 0 
L 469 531 
Q 828 903 1448 1529 
Q 2069 2156 2228 2338 
Q 2531 2678 2651 2914 
Q 2772 3150 2772 3378 
Q 2772 3750 2511 3984 
Q 2250 4219 1831 4219 
Q 1534 4219 1204 4116 
Q 875 4013 500 3803 
L 500 4441 
Q 881 4594 1212 4672 
Q 1544 4750 1819 4750 
Q 2544 4750 2975 4387 
Q 3406 4025 3406 3419 
Q 3406 3131 3298 2873 
Q 3191 2616 2906 2266 
Q 2828 2175 2409 1742 
Q 1991 1309 1228 531 
z
" id="DejaVuSans-32" transform="scale(0.015625)"/>
        <path d="M 2034 4250 
Q 1547 4250 1301 3770 
Q 1056 3291 1056 2328 
Q 1056 1369 1301 889 
Q 1547 409 2034 409 
Q 2525 409 2770 889 
Q 3016 1369 3016 2328 
Q 3016 3291 2770 3770 
Q 2525 4250 2034 4250 
z
M 2034 4750 
Q 2819 4750 3233 4129 
Q 3647 3509 3647 2328 
Q 3647 1150 3233 529 
Q 2819 -91 2034 -91 
Q 1250 -91 836 529 
Q 422 1150 422 2328 
Q 422 3509 836 4129 
Q 1250 4750 2034 4750 
z
" id="DejaVuSans-30" transform="scale(0.015625)"/>
       </defs>
       <use xlink:href="#DejaVuSans-32"/>
       <use x="63.623047" xlink:href="#DejaVuSans-30"/>
      </g>
     </g>
    </g>
    <g id="xtick_2">
     <g id="line2d_3">
      <path clip-path="url(#p899fd92f9b)" d="M 95.85 252 
L 95.85 34.56 
" style="fill:none;stroke:#b0b0b0;stroke-linecap:square;stroke-width:0.8;"/>
     </g>
     <g id="line2d_4">
      <g>
       <use style="stroke:#000000;stroke-width:0.8;" x="95.85" xlink:href="#m6405cefd59" y="252"/>
      </g>
     </g>
     <g id="text_2">
      <!-- 30 -->
      <g transform="translate(89.4875 266.598437)scale(0.1 -0.1)">
       <defs>
        <path d="M 2597 2516 
Q 3050 2419 3304 2112 
Q 3559 1806 3559 1356 
Q 3559 666 3084 287 
Q 2609 -91 1734 -91 
Q 1441 -91 1130 -33 
Q 819 25 488 141 
L 488 750 
Q 750 597 1062 519 
Q 1375 441 1716 441 
Q 2309 441 2620 675 
Q 2931 909 2931 1356 
Q 2931 1769 2642 2001 
Q 2353 2234 1838 2234 
L 1294 2234 
L 1294 2753 
L 1863 2753 
Q 2328 2753 2575 2939 
Q 2822 3125 2822 3475 
Q 2822 3834 2567 4026 
Q 2313 4219 1838 4219 
Q 1578 4219 1281 4162 
Q 984 4106 628 3988 
L 628 4550 
Q 988 4650 1302 4700 
Q 1616 4750 1894 4750 
Q 2613 4750 3031 4423 
Q 3450 4097 3450 3541 
Q 3450 3153 3228 2886 
Q 3006 2619 2597 2516 
z
" id="DejaVuSans-33" transform="scale(0.015625)"/>
       </defs>
       <use xlink:href="#DejaVuSans-33"/>
       <use x="63.623047" xlink:href="#DejaVuSans-30"/>
      </g>
     </g>
    </g>
    <g id="xtick_3">
     <g id="line2d_5">
      <path clip-path="url(#p899fd92f9b)" d="M 137.7 252 
L 137.7 34.56 
" style="fill:none;stroke:#b0b0b0;stroke-linecap:square;stroke-width:0.8;"/>
     </g>
     <g id="line2d_6">
      <g>
       <use style="stroke:#000000;stroke-width:0.8;" x="137.7" xlink:href="#m6405cefd59" y="252"/>
      </g>
     </g>
     <g id="text_3">
      <!-- 40 -->
      <g transform="translate(131.3375 266.598437)scale(0.1 -0.1)">
       <defs>
        <path d="M 2419 4116 
L 825 1625 
L 2419 1625 
L 2419 4116 
z
M 2253 4666 
L 3047 4666 
L 3047 1625 
L 3713 1625 
L 3713 1100 
L 3047 1100 
L 3047 0 
L 2419 0 
L 2419 1100 
L 313 1100 
L 313 1709 
L 2253 4666 
z
" id="DejaVuSans-34" transform="scale(0.015625)"/>
       </defs>
       <use xlink:href="#DejaVuSans-34"/>
       <use x="63.623047" xlink:href="#DejaVuSans-30"/>
      </g>
     </g>
    </g>
    <g id="xtick_4">
     <g id="line2d_7">
      <path clip-path="url(#p899fd92f9b)" d="M 179.55 252 
L 179.55 34.56 
" style="fill:none;stroke:#b0b0b0;stroke-linecap:square;stroke-width:0.8;"/>
     </g>
     <g id="line2d_8">
      <g>
       <use style="stroke:#000000;stroke-width:0.8;" x="179.55" xlink:href="#m6405cefd59" y="252"/>
      </g>
     </g>
     <g id="text_4">
      <!-- 50 -->
      <g transform="translate(173.1875 266.598437)scale(0.1 -0.1)">
       <defs>
        <path d="M 691 4666 
L 3169 4666 
L 3169 4134 
L 1269 4134 
L 1269 2991 
Q 1406 3038 1543 3061 
Q 1681 3084 1819 3084 
Q 2600 3084 3056 2656 
Q 3513 2228 3513 1497 
Q 3513 744 3044 326 
Q 2575 -91 1722 -91 
Q 1428 -91 1123 -41 
Q 819 9 494 109 
L 494 744 
Q 775 591 1075 516 
Q 1375 441 1709 441 
Q 2250 441 2565 725 
Q 2881 1009 2881 1497 
Q 2881 1984 2565 2268 
Q 2250 2553 1709 2553 
Q 1456 2553 1204 2497 
Q 953 2441 691 2322 
L 691 4666 
z
" id="DejaVuSans-35" transform="scale(0.015625)"/>
       </defs>
       <use xlink:href="#DejaVuSans-35"/>
       <use x="63.623047" xlink:href="#DejaVuSans-30"/>
      </g>
     </g>
    </g>
    <g id="xtick_5">
     <g id="line2d_9">
      <path clip-path="url(#p899fd92f9b)" d="M 221.4 252 
L 221.4 34.56 
" style="fill:none;stroke:#b0b0b0;stroke-linecap:square;stroke-width:0.8;"/>
     </g>
     <g id="line2d_10">
      <g>
       <use style="stroke:#000000;stroke-width:0.8;" x="221.4" xlink:href="#m6405cefd59" y="252"/>
      </g>
     </g>
     <g id="text_5">
      <!-- 60 -->
      <g transform="translate(215.0375 266.598437)scale(0.1 -0.1)">
       <defs>
        <path d="M 2113 2584 
Q 1688 2584 1439 2293 
Q 1191 2003 1191 1497 
Q 1191 994 1439 701 
Q 1688 409 2113 409 
Q 2538 409 2786 701 
Q 3034 994 3034 1497 
Q 3034 2003 2786 2293 
Q 2538 2584 2113 2584 
z
M 3366 4563 
L 3366 3988 
Q 3128 4100 2886 4159 
Q 2644 4219 2406 4219 
Q 1781 4219 1451 3797 
Q 1122 3375 1075 2522 
Q 1259 2794 1537 2939 
Q 1816 3084 2150 3084 
Q 2853 3084 3261 2657 
Q 3669 2231 3669 1497 
Q 3669 778 3244 343 
Q 2819 -91 2113 -91 
Q 1303 -91 875 529 
Q 447 1150 447 2328 
Q 447 3434 972 4092 
Q 1497 4750 2381 4750 
Q 2619 4750 2861 4703 
Q 3103 4656 3366 4563 
z
" id="DejaVuSans-36" transform="scale(0.015625)"/>
       </defs>
       <use xlink:href="#DejaVuSans-36"/>
       <use x="63.623047" xlink:href="#DejaVuSans-30"/>
      </g>
     </g>
    </g>
    <g id="xtick_6">
     <g id="line2d_11">
      <path clip-path="url(#p899fd92f9b)" d="M 263.25 252 
L 263.25 34.56 
" style="fill:none;stroke:#b0b0b0;stroke-linecap:square;stroke-width:0.8;"/>
     </g>
     <g id="line2d_12">
      <g>
       <use style="stroke:#000000;stroke-width:0.8;" x="263.25" xlink:href="#m6405cefd59" y="252"/>
      </g>
     </g>
     <g id="text_6">
      <!-- 70 -->
      <g transform="translate(256.8875 266.598437)scale(0.1 -0.1)">
       <defs>
        <path d="M 525 4666 
L 3525 4666 
L 3525 4397 
L 1831 0 
L 1172 0 
L 2766 4134 
L 525 4134 
L 525 4666 
z
" id="DejaVuSans-37" transform="scale(0.015625)"/>
       </defs>
       <use xlink:href="#DejaVuSans-37"/>
       <use x="63.623047" xlink:href="#DejaVuSans-30"/>
      </g>
     </g>
    </g>
    <g id="xtick_7">
     <g id="line2d_13">
      <path clip-path="url(#p899fd92f9b)" d="M 305.1 252 
L 305.1 34.56 
" style="fill:none;stroke:#b0b0b0;stroke-linecap:square;stroke-width:0.8;"/>
     </g>
     <g id="line2d_14">
      <g>
       <use style="stroke:#000000;stroke-width:0.8;" x="305.1" xlink:href="#m6405cefd59" y="252"/>
      </g>
     </g>
     <g id="text_7">
      <!-- 80 -->
      <g transform="translate(298.7375 266.598437)scale(0.1 -0.1)">
       <defs>
        <path d="M 2034 2216 
Q 1584 2216 1326 1975 
Q 1069 1734 1069 1313 
Q 1069 891 1326 650 
Q 1584 409 2034 409 
Q 2484 409 2743 651 
Q 3003 894 3003 1313 
Q 3003 1734 2745 1975 
Q 2488 2216 2034 2216 
z
M 1403 2484 
Q 997 2584 770 2862 
Q 544 3141 544 3541 
Q 544 4100 942 4425 
Q 1341 4750 2034 4750 
Q 2731 4750 3128 4425 
Q 3525 4100 3525 3541 
Q 3525 3141 3298 2862 
Q 3072 2584 2669 2484 
Q 3125 2378 3379 2068 
Q 3634 1759 3634 1313 
Q 3634 634 3220 271 
Q 2806 -91 2034 -91 
Q 1263 -91 848 271 
Q 434 634 434 1313 
Q 434 1759 690 2068 
Q 947 2378 1403 2484 
z
M 1172 3481 
Q 1172 3119 1398 2916 
Q 1625 2713 2034 2713 
Q 2441 2713 2670 2916 
Q 2900 3119 2900 3481 
Q 2900 3844 2670 4047 
Q 2441 4250 2034 4250 
Q 1625 4250 1398 4047 
Q 1172 3844 1172 3481 
z
" id="DejaVuSans-38" transform="scale(0.015625)"/>
       </defs>
       <use xlink:href="#DejaVuSans-38"/>
       <use x="63.623047" xlink:href="#DejaVuSans-30"/>
      </g>
     </g>
    </g>
    <g id="xtick_8">
     <g id="line2d_15">
      <path clip-path="url(#p899fd92f9b)" d="M 346.95 252 
L 346.95 34.56 
" style="fill:none;stroke:#b0b0b0;stroke-linecap:square;stroke-width:0.8;"/>
     </g>
     <g id="line2d_16">
      <g>
       <use style="stroke:#000000;stroke-width:0.8;" x="346.95" xlink:href="#m6405cefd59" y="252"/>
      </g>
     </g>
     <g id="text_8">
      <!-- 90 -->
      <g transform="translate(340.5875 266.598437)scale(0.1 -0.1)">
       <defs>
        <path d="M 703 97 
L 703 672 
Q 941 559 1184 500 
Q 1428 441 1663 441 
Q 2288 441 2617 861 
Q 2947 1281 2994 2138 
Q 2813 1869 2534 1725 
Q 2256 1581 1919 1581 
Q 1219 1581 811 2004 
Q 403 2428 403 3163 
Q 403 3881 828 4315 
Q 1253 4750 1959 4750 
Q 2769 4750 3195 4129 
Q 3622 3509 3622 2328 
Q 3622 1225 3098 567 
Q 2575 -91 1691 -91 
Q 1453 -91 1209 -44 
Q 966 3 703 97 
z
M 1959 2075 
Q 2384 2075 2632 2365 
Q 2881 2656 2881 3163 
Q 2881 3666 2632 3958 
Q 2384 4250 1959 4250 
Q 1534 4250 1286 3958 
Q 1038 3666 1038 3163 
Q 1038 2656 1286 2365 
Q 1534 2075 1959 2075 
z
" id="DejaVuSans-39" transform="scale(0.015625)"/>
       </defs>
       <use xlink:href="#DejaVuSans-39"/>
       <use x="63.623047" xlink:href="#DejaVuSans-30"/>
      </g>
     </g>
    </g>
    <g id="xtick_9">
     <g id="line2d_17">
      <path clip-path="url(#p899fd92f9b)" d="M 388.8 252 
L 388.8 34.56 
" style="fill:none;stroke:#b0b0b0;stroke-linecap:square;stroke-width:0.8;"/>
     </g>
     <g id="line2d_18">
      <g>
       <use style="stroke:#000000;stroke-width:0.8;" x="388.8" xlink:href="#m6405cefd59" y="252"/>
      </g>
     </g>
     <g id="text_9">
      <!-- 100 -->
      <g transform="translate(379.25625 266.598437)scale(0.1 -0.1)">
       <defs>
        <path d="M 794 531 
L 1825 531 
L 1825 4091 
L 703 3866 
L 703 4441 
L 1819 4666 
L 2450 4666 
L 2450 531 
L 3481 531 
L 3481 0 
L 794 0 
L 794 531 
z
" id="DejaVuSans-31" transform="scale(0.015625)"/>
       </defs>
       <use xlink:href="#DejaVuSans-31"/>
       <use x="63.623047" xlink:href="#DejaVuSans-30"/>
       <use x="127.246094" xlink:href="#DejaVuSans-30"/>
      </g>
     </g>
    </g>
    <g id="text_10">
     <!-- Edad -->
     <g transform="translate(208.828125 280.276563)scale(0.1 -0.1)">
      <defs>
       <path d="M 628 4666 
L 3578 4666 
L 3578 4134 
L 1259 4134 
L 1259 2753 
L 3481 2753 
L 3481 2222 
L 1259 2222 
L 1259 531 
L 3634 531 
L 3634 0 
L 628 0 
L 628 4666 
z
" id="DejaVuSans-45" transform="scale(0.015625)"/>
       <path d="M 2906 2969 
L 2906 4863 
L 3481 4863 
L 3481 0 
L 2906 0 
L 2906 525 
Q 2725 213 2448 61 
Q 2172 -91 1784 -91 
Q 1150 -91 751 415 
Q 353 922 353 1747 
Q 353 2572 751 3078 
Q 1150 3584 1784 3584 
Q 2172 3584 2448 3432 
Q 2725 3281 2906 2969 
z
M 947 1747 
Q 947 1113 1208 752 
Q 1469 391 1925 391 
Q 2381 391 2643 752 
Q 2906 1113 2906 1747 
Q 2906 2381 2643 2742 
Q 2381 3103 1925 3103 
Q 1469 3103 1208 2742 
Q 947 2381 947 1747 
z
" id="DejaVuSans-64" transform="scale(0.015625)"/>
       <path d="M 2194 1759 
Q 1497 1759 1228 1600 
Q 959 1441 959 1056 
Q 959 750 1161 570 
Q 1363 391 1709 391 
Q 2188 391 2477 730 
Q 2766 1069 2766 1631 
L 2766 1759 
L 2194 1759 
z
M 3341 1997 
L 3341 0 
L 2766 0 
L 2766 531 
Q 2569 213 2275 61 
Q 1981 -91 1556 -91 
Q 1019 -91 701 211 
Q 384 513 384 1019 
Q 384 1609 779 1909 
Q 1175 2209 1959 2209 
L 2766 2209 
L 2766 2266 
Q 2766 2663 2505 2880 
Q 2244 3097 1772 3097 
Q 1472 3097 1187 3025 
Q 903 2953 641 2809 
L 641 3341 
Q 956 3463 1253 3523 
Q 1550 3584 1831 3584 
Q 2591 3584 2966 3190 
Q 3341 2797 3341 1997 
z
" id="DejaVuSans-61" transform="scale(0.015625)"/>
      </defs>
      <use xlink:href="#DejaVuSans-45"/>
      <use x="63.183594" xlink:href="#DejaVuSans-64"/>
      <use x="126.660156" xlink:href="#DejaVuSans-61"/>
      <use x="187.939453" xlink:href="#DejaVuSans-64"/>
     </g>
    </g>
   </g>
   <g id="matplotlib.axis_2">
    <g id="ytick_1">
     <g id="line2d_19">
      <path clip-path="url(#p899fd92f9b)" d="M 54 252 
L 388.8 252 
" style="fill:none;stroke:#b0b0b0;stroke-linecap:square;stroke-width:0.8;"/>
     </g>
     <g id="line2d_20">
      <defs>
       <path d="M 0 0 
L -3.5 0 
" id="m1a6792cc93" style="stroke:#000000;stroke-width:0.8;"/>
      </defs>
      <g>
       <use style="stroke:#000000;stroke-width:0.8;" x="54" xlink:href="#m1a6792cc93" y="252"/>
      </g>
     </g>
     <g id="text_11">
      <!-- 0.0 -->
      <g transform="translate(31.096875 255.799219)scale(0.1 -0.1)">
       <defs>
        <path d="M 684 794 
L 1344 794 
L 1344 0 
L 684 0 
L 684 794 
z
" id="DejaVuSans-2e" transform="scale(0.015625)"/>
       </defs>
       <use xlink:href="#DejaVuSans-30"/>
       <use x="63.623047" xlink:href="#DejaVuSans-2e"/>
       <use x="95.410156" xlink:href="#DejaVuSans-30"/>
      </g>
     </g>
    </g>
    <g id="ytick_2">
     <g id="line2d_21">
      <path clip-path="url(#p899fd92f9b)" d="M 54 210.582857 
L 388.8 210.582857 
" style="fill:none;stroke:#b0b0b0;stroke-linecap:square;stroke-width:0.8;"/>
     </g>
     <g id="line2d_22">
      <g>
       <use style="stroke:#000000;stroke-width:0.8;" x="54" xlink:href="#m1a6792cc93" y="210.582857"/>
      </g>
     </g>
     <g id="text_12">
      <!-- 0.1 -->
      <g transform="translate(31.096875 214.382076)scale(0.1 -0.1)">
       <use xlink:href="#DejaVuSans-30"/>
       <use x="63.623047" xlink:href="#DejaVuSans-2e"/>
       <use x="95.410156" xlink:href="#DejaVuSans-31"/>
      </g>
     </g>
    </g>
    <g id="ytick_3">
     <g id="line2d_23">
      <path clip-path="url(#p899fd92f9b)" d="M 54 169.165714 
L 388.8 169.165714 
" style="fill:none;stroke:#b0b0b0;stroke-linecap:square;stroke-width:0.8;"/>
     </g>
     <g id="line2d_24">
      <g>
       <use style="stroke:#000000;stroke-width:0.8;" x="54" xlink:href="#m1a6792cc93" y="169.165714"/>
      </g>
     </g>
     <g id="text_13">
      <!-- 0.2 -->
      <g transform="translate(31.096875 172.964933)scale(0.1 -0.1)">
       <use xlink:href="#DejaVuSans-30"/>
       <use x="63.623047" xlink:href="#DejaVuSans-2e"/>
       <use x="95.410156" xlink:href="#DejaVuSans-32"/>
      </g>
     </g>
    </g>
    <g id="ytick_4">
     <g id="line2d_25">
      <path clip-path="url(#p899fd92f9b)" d="M 54 127.748571 
L 388.8 127.748571 
" style="fill:none;stroke:#b0b0b0;stroke-linecap:square;stroke-width:0.8;"/>
     </g>
     <g id="line2d_26">
      <g>
       <use style="stroke:#000000;stroke-width:0.8;" x="54" xlink:href="#m1a6792cc93" y="127.748571"/>
      </g>
     </g>
     <g id="text_14">
      <!-- 0.3 -->
      <g transform="translate(31.096875 131.54779)scale(0.1 -0.1)">
       <use xlink:href="#DejaVuSans-30"/>
       <use x="63.623047" xlink:href="#DejaVuSans-2e"/>
       <use x="95.410156" xlink:href="#DejaVuSans-33"/>
      </g>
     </g>
    </g>
    <g id="ytick_5">
     <g id="line2d_27">
      <path clip-path="url(#p899fd92f9b)" d="M 54 86.331429 
L 388.8 86.331429 
" style="fill:none;stroke:#b0b0b0;stroke-linecap:square;stroke-width:0.8;"/>
     </g>
     <g id="line2d_28">
      <g>
       <use style="stroke:#000000;stroke-width:0.8;" x="54" xlink:href="#m1a6792cc93" y="86.331429"/>
      </g>
     </g>
     <g id="text_15">
      <!-- 0.4 -->
      <g transform="translate(31.096875 90.130647)scale(0.1 -0.1)">
       <use xlink:href="#DejaVuSans-30"/>
       <use x="63.623047" xlink:href="#DejaVuSans-2e"/>
       <use x="95.410156" xlink:href="#DejaVuSans-34"/>
      </g>
     </g>
    </g>
    <g id="ytick_6">
     <g id="line2d_29">
      <path clip-path="url(#p899fd92f9b)" d="M 54 44.914286 
L 388.8 44.914286 
" style="fill:none;stroke:#b0b0b0;stroke-linecap:square;stroke-width:0.8;"/>
     </g>
     <g id="line2d_30">
      <g>
       <use style="stroke:#000000;stroke-width:0.8;" x="54" xlink:href="#m1a6792cc93" y="44.914286"/>
      </g>
     </g>
     <g id="text_16">
      <!-- 0.5 -->
      <g transform="translate(31.096875 48.713504)scale(0.1 -0.1)">
       <use xlink:href="#DejaVuSans-30"/>
       <use x="63.623047" xlink:href="#DejaVuSans-2e"/>
       <use x="95.410156" xlink:href="#DejaVuSans-35"/>
      </g>
     </g>
    </g>
    <g id="text_17">
     <!-- Porcentaje fallecidos de casos confirmados -->
     <g transform="translate(25.017187 250.812031)rotate(-90)scale(0.1 -0.1)">
      <defs>
       <path d="M 1259 4147 
L 1259 2394 
L 2053 2394 
Q 2494 2394 2734 2622 
Q 2975 2850 2975 3272 
Q 2975 3691 2734 3919 
Q 2494 4147 2053 4147 
L 1259 4147 
z
M 628 4666 
L 2053 4666 
Q 2838 4666 3239 4311 
Q 3641 3956 3641 3272 
Q 3641 2581 3239 2228 
Q 2838 1875 2053 1875 
L 1259 1875 
L 1259 0 
L 628 0 
L 628 4666 
z
" id="DejaVuSans-50" transform="scale(0.015625)"/>
       <path d="M 1959 3097 
Q 1497 3097 1228 2736 
Q 959 2375 959 1747 
Q 959 1119 1226 758 
Q 1494 397 1959 397 
Q 2419 397 2687 759 
Q 2956 1122 2956 1747 
Q 2956 2369 2687 2733 
Q 2419 3097 1959 3097 
z
M 1959 3584 
Q 2709 3584 3137 3096 
Q 3566 2609 3566 1747 
Q 3566 888 3137 398 
Q 2709 -91 1959 -91 
Q 1206 -91 779 398 
Q 353 888 353 1747 
Q 353 2609 779 3096 
Q 1206 3584 1959 3584 
z
" id="DejaVuSans-6f" transform="scale(0.015625)"/>
       <path d="M 2631 2963 
Q 2534 3019 2420 3045 
Q 2306 3072 2169 3072 
Q 1681 3072 1420 2755 
Q 1159 2438 1159 1844 
L 1159 0 
L 581 0 
L 581 3500 
L 1159 3500 
L 1159 2956 
Q 1341 3275 1631 3429 
Q 1922 3584 2338 3584 
Q 2397 3584 2469 3576 
Q 2541 3569 2628 3553 
L 2631 2963 
z
" id="DejaVuSans-72" transform="scale(0.015625)"/>
       <path d="M 3122 3366 
L 3122 2828 
Q 2878 2963 2633 3030 
Q 2388 3097 2138 3097 
Q 1578 3097 1268 2742 
Q 959 2388 959 1747 
Q 959 1106 1268 751 
Q 1578 397 2138 397 
Q 2388 397 2633 464 
Q 2878 531 3122 666 
L 3122 134 
Q 2881 22 2623 -34 
Q 2366 -91 2075 -91 
Q 1284 -91 818 406 
Q 353 903 353 1747 
Q 353 2603 823 3093 
Q 1294 3584 2113 3584 
Q 2378 3584 2631 3529 
Q 2884 3475 3122 3366 
z
" id="DejaVuSans-63" transform="scale(0.015625)"/>
       <path d="M 3597 1894 
L 3597 1613 
L 953 1613 
Q 991 1019 1311 708 
Q 1631 397 2203 397 
Q 2534 397 2845 478 
Q 3156 559 3463 722 
L 3463 178 
Q 3153 47 2828 -22 
Q 2503 -91 2169 -91 
Q 1331 -91 842 396 
Q 353 884 353 1716 
Q 353 2575 817 3079 
Q 1281 3584 2069 3584 
Q 2775 3584 3186 3129 
Q 3597 2675 3597 1894 
z
M 3022 2063 
Q 3016 2534 2758 2815 
Q 2500 3097 2075 3097 
Q 1594 3097 1305 2825 
Q 1016 2553 972 2059 
L 3022 2063 
z
" id="DejaVuSans-65" transform="scale(0.015625)"/>
       <path d="M 3513 2113 
L 3513 0 
L 2938 0 
L 2938 2094 
Q 2938 2591 2744 2837 
Q 2550 3084 2163 3084 
Q 1697 3084 1428 2787 
Q 1159 2491 1159 1978 
L 1159 0 
L 581 0 
L 581 3500 
L 1159 3500 
L 1159 2956 
Q 1366 3272 1645 3428 
Q 1925 3584 2291 3584 
Q 2894 3584 3203 3211 
Q 3513 2838 3513 2113 
z
" id="DejaVuSans-6e" transform="scale(0.015625)"/>
       <path d="M 1172 4494 
L 1172 3500 
L 2356 3500 
L 2356 3053 
L 1172 3053 
L 1172 1153 
Q 1172 725 1289 603 
Q 1406 481 1766 481 
L 2356 481 
L 2356 0 
L 1766 0 
Q 1100 0 847 248 
Q 594 497 594 1153 
L 594 3053 
L 172 3053 
L 172 3500 
L 594 3500 
L 594 4494 
L 1172 4494 
z
" id="DejaVuSans-74" transform="scale(0.015625)"/>
       <path d="M 603 3500 
L 1178 3500 
L 1178 -63 
Q 1178 -731 923 -1031 
Q 669 -1331 103 -1331 
L -116 -1331 
L -116 -844 
L 38 -844 
Q 366 -844 484 -692 
Q 603 -541 603 -63 
L 603 3500 
z
M 603 4863 
L 1178 4863 
L 1178 4134 
L 603 4134 
L 603 4863 
z
" id="DejaVuSans-6a" transform="scale(0.015625)"/>
       <path id="DejaVuSans-20" transform="scale(0.015625)"/>
       <path d="M 2375 4863 
L 2375 4384 
L 1825 4384 
Q 1516 4384 1395 4259 
Q 1275 4134 1275 3809 
L 1275 3500 
L 2222 3500 
L 2222 3053 
L 1275 3053 
L 1275 0 
L 697 0 
L 697 3053 
L 147 3053 
L 147 3500 
L 697 3500 
L 697 3744 
Q 697 4328 969 4595 
Q 1241 4863 1831 4863 
L 2375 4863 
z
" id="DejaVuSans-66" transform="scale(0.015625)"/>
       <path d="M 603 4863 
L 1178 4863 
L 1178 0 
L 603 0 
L 603 4863 
z
" id="DejaVuSans-6c" transform="scale(0.015625)"/>
       <path d="M 603 3500 
L 1178 3500 
L 1178 0 
L 603 0 
L 603 3500 
z
M 603 4863 
L 1178 4863 
L 1178 4134 
L 603 4134 
L 603 4863 
z
" id="DejaVuSans-69" transform="scale(0.015625)"/>
       <path d="M 2834 3397 
L 2834 2853 
Q 2591 2978 2328 3040 
Q 2066 3103 1784 3103 
Q 1356 3103 1142 2972 
Q 928 2841 928 2578 
Q 928 2378 1081 2264 
Q 1234 2150 1697 2047 
L 1894 2003 
Q 2506 1872 2764 1633 
Q 3022 1394 3022 966 
Q 3022 478 2636 193 
Q 2250 -91 1575 -91 
Q 1294 -91 989 -36 
Q 684 19 347 128 
L 347 722 
Q 666 556 975 473 
Q 1284 391 1588 391 
Q 1994 391 2212 530 
Q 2431 669 2431 922 
Q 2431 1156 2273 1281 
Q 2116 1406 1581 1522 
L 1381 1569 
Q 847 1681 609 1914 
Q 372 2147 372 2553 
Q 372 3047 722 3315 
Q 1072 3584 1716 3584 
Q 2034 3584 2315 3537 
Q 2597 3491 2834 3397 
z
" id="DejaVuSans-73" transform="scale(0.015625)"/>
       <path d="M 3328 2828 
Q 3544 3216 3844 3400 
Q 4144 3584 4550 3584 
Q 5097 3584 5394 3201 
Q 5691 2819 5691 2113 
L 5691 0 
L 5113 0 
L 5113 2094 
Q 5113 2597 4934 2840 
Q 4756 3084 4391 3084 
Q 3944 3084 3684 2787 
Q 3425 2491 3425 1978 
L 3425 0 
L 2847 0 
L 2847 2094 
Q 2847 2600 2669 2842 
Q 2491 3084 2119 3084 
Q 1678 3084 1418 2786 
Q 1159 2488 1159 1978 
L 1159 0 
L 581 0 
L 581 3500 
L 1159 3500 
L 1159 2956 
Q 1356 3278 1631 3431 
Q 1906 3584 2284 3584 
Q 2666 3584 2933 3390 
Q 3200 3197 3328 2828 
z
" id="DejaVuSans-6d" transform="scale(0.015625)"/>
      </defs>
      <use xlink:href="#DejaVuSans-50"/>
      <use x="56.677734" xlink:href="#DejaVuSans-6f"/>
      <use x="117.859375" xlink:href="#DejaVuSans-72"/>
      <use x="156.722656" xlink:href="#DejaVuSans-63"/>
      <use x="211.703125" xlink:href="#DejaVuSans-65"/>
      <use x="273.226562" xlink:href="#DejaVuSans-6e"/>
      <use x="336.605469" xlink:href="#DejaVuSans-74"/>
      <use x="375.814453" xlink:href="#DejaVuSans-61"/>
      <use x="437.09375" xlink:href="#DejaVuSans-6a"/>
      <use x="464.876953" xlink:href="#DejaVuSans-65"/>
      <use x="526.400391" xlink:href="#DejaVuSans-20"/>
      <use x="558.1875" xlink:href="#DejaVuSans-66"/>
      <use x="593.392578" xlink:href="#DejaVuSans-61"/>
      <use x="654.671875" xlink:href="#DejaVuSans-6c"/>
      <use x="682.455078" xlink:href="#DejaVuSans-6c"/>
      <use x="710.238281" xlink:href="#DejaVuSans-65"/>
      <use x="771.761719" xlink:href="#DejaVuSans-63"/>
      <use x="826.742188" xlink:href="#DejaVuSans-69"/>
      <use x="854.525391" xlink:href="#DejaVuSans-64"/>
      <use x="918.001953" xlink:href="#DejaVuSans-6f"/>
      <use x="979.183594" xlink:href="#DejaVuSans-73"/>
      <use x="1031.283203" xlink:href="#DejaVuSans-20"/>
      <use x="1063.070312" xlink:href="#DejaVuSans-64"/>
      <use x="1126.546875" xlink:href="#DejaVuSans-65"/>
      <use x="1188.070312" xlink:href="#DejaVuSans-20"/>
      <use x="1219.857422" xlink:href="#DejaVuSans-63"/>
      <use x="1274.837891" xlink:href="#DejaVuSans-61"/>
      <use x="1336.117188" xlink:href="#DejaVuSans-73"/>
      <use x="1388.216797" xlink:href="#DejaVuSans-6f"/>
      <use x="1449.398438" xlink:href="#DejaVuSans-73"/>
      <use x="1501.498047" xlink:href="#DejaVuSans-20"/>
      <use x="1533.285156" xlink:href="#DejaVuSans-63"/>
      <use x="1588.265625" xlink:href="#DejaVuSans-6f"/>
      <use x="1649.447266" xlink:href="#DejaVuSans-6e"/>
      <use x="1712.826172" xlink:href="#DejaVuSans-66"/>
      <use x="1748.03125" xlink:href="#DejaVuSans-69"/>
      <use x="1775.814453" xlink:href="#DejaVuSans-72"/>
      <use x="1815.177734" xlink:href="#DejaVuSans-6d"/>
      <use x="1912.589844" xlink:href="#DejaVuSans-61"/>
      <use x="1973.869141" xlink:href="#DejaVuSans-64"/>
      <use x="2037.345703" xlink:href="#DejaVuSans-6f"/>
      <use x="2098.527344" xlink:href="#DejaVuSans-73"/>
     </g>
    </g>
   </g>
   <g id="patch_165">
    <path d="M 54 252 
L 54 34.56 
" style="fill:none;stroke:#000000;stroke-linecap:square;stroke-linejoin:miter;stroke-width:0.8;"/>
   </g>
   <g id="patch_166">
    <path d="M 388.8 252 
L 388.8 34.56 
" style="fill:none;stroke:#000000;stroke-linecap:square;stroke-linejoin:miter;stroke-width:0.8;"/>
   </g>
   <g id="patch_167">
    <path d="M 54 252 
L 388.8 252 
" style="fill:none;stroke:#000000;stroke-linecap:square;stroke-linejoin:miter;stroke-width:0.8;"/>
   </g>
   <g id="patch_168">
    <path d="M 54 34.56 
L 388.8 34.56 
" style="fill:none;stroke:#000000;stroke-linecap:square;stroke-linejoin:miter;stroke-width:0.8;"/>
   </g>
   <g id="legend_1">
    <g id="patch_169">
     <path d="M 61 71.91625 
L 118.45 71.91625 
Q 120.45 71.91625 120.45 69.91625 
L 120.45 41.56 
Q 120.45 39.56 118.45 39.56 
L 61 39.56 
Q 59 39.56 59 41.56 
L 59 69.91625 
Q 59 71.91625 61 71.91625 
z
" style="fill:#ffffff;opacity:0.8;stroke:#cccccc;stroke-linejoin:miter;"/>
    </g>
    <g id="patch_170">
     <path d="M 63 51.158437 
L 83 51.158437 
L 83 44.158437 
L 63 44.158437 
z
" style="fill:#1f77b4;"/>
    </g>
    <g id="text_18">
     <!-- 2020 -->
     <g transform="translate(91 51.158437)scale(0.1 -0.1)">
      <use xlink:href="#DejaVuSans-32"/>
      <use x="63.623047" xlink:href="#DejaVuSans-30"/>
      <use x="127.246094" xlink:href="#DejaVuSans-32"/>
      <use x="190.869141" xlink:href="#DejaVuSans-30"/>
     </g>
    </g>
    <g id="patch_171">
     <path d="M 63 65.836562 
L 83 65.836562 
L 83 58.836562 
L 63 58.836562 
z
" style="fill:#ff7f0e;"/>
    </g>
    <g id="text_19">
     <!-- 2021 -->
     <g transform="translate(91 65.836562)scale(0.1 -0.1)">
      <use xlink:href="#DejaVuSans-32"/>
      <use x="63.623047" xlink:href="#DejaVuSans-30"/>
      <use x="127.246094" xlink:href="#DejaVuSans-32"/>
      <use x="190.869141" xlink:href="#DejaVuSans-31"/>
     </g>
    </g>
   </g>
  </g>
 </g>
 <defs>
  <clipPath id="p899fd92f9b">
   <rect height="217.44" width="334.8" x="54" y="34.56"/>
  </clipPath>
 </defs>
</svg>
